<svg xmlns="http://www.w3.org/2000/svg" viewBox="0 0 204.8 204.8">
	<title> Strona Główna </title>
	<g class="outer-items">
		<g class="outer-circle"><circle cy="-144.8" r="102.2" fill="#fff" stroke="#000" stroke-width=".4" transform="rotate(135)"/></g>
		<g class="text">
			<path d="M32.4 167l1-1 .4-.6.3-.6.1-.5q1 1.2 1 2.4t-1.4 2.2q-1 .8-2.4 1-1.4.3-2.8 0-1.4-.4-2.8-1.3-1.5-1-2.6-2.3-1-1.3-1.5-2.4-.4-1.2-.4-2.2t.5-2q.4-.8 1.1-1.3.8-.7 2-1 1.1-.2 2.3.2-1.2-1.8-.8-3.7.3-2 2.3-3.5.6-.6 1.6-1.1 1-.6 2.2-1h2.2q1 .4 2 1.4l.6 1 .3 1q0 .6-.2 1-.2.5-.6.9l-.4.2-.4.3q.2-.7 0-1.3l-.5-1q-.4-.5-1-.6h-1.2l-1.2.7-1.2.8q-2 1.6-2.2 3.2-.3 1.4.8 2.8l.6.6.6.7 8.3-6.7 1.8 2.2-13.5 11-2.2-2 4.8-3.8-.2-.3q-.5-.6-1.2-1l-1.5-.1q-.8 0-1.5.2-.8.3-1.3.7-1.2 1-1.3 2.5t1.2 3.2q.8.9 1.8 1.5 1 .7 2 .9t2.2 0q1.2-.3 2.3-1.2zm-15.2-30.4q1.7-.8 3.5 0 2 1 3.3 3.4 1-.6 1.4-1.1l.7-1.1q.2-.5.1-1 0-.6-.3-1.2-.4-.7-1-1.3t-1.5-.8l.4-.1.2-.2q.6-.3 1.2-.2.5 0 1.1.4.6.3 1 1 .5.4.8 1 .4 1 .5 2 0 1-.3 2t-1.2 1.9q-1 .9-2.5 1.6-1 .5-2.3.9-1.4.3-2.7.2-1.3 0-2.4-.6-1-.6-1.7-2l-.4-1.2q-.2-.7 0-1.3.1-.6.6-1.2t1.5-1zm5.8 3.9q-1-1.7-2.5-2.2-1.4-.6-2.8 0-1 .5-1.2 1-.3.5 0 1t1 1l1.7.2q1 0 2-.3zm-3.4-23.6v.4l-.5.2-.8-.1q-.3-.3-.4-.7l.2-1.2q.2-.6 1-.7h1l.7.4q.5.3.8.9l.5 1.2 1.6 7-13.2-3 .6 2.2.3 1q.2.5.4.5.3-.1.4-.4 0-.2.3-.3l.7.2q.3.3.4.8.2.8-.2 1.3-.5.5-1.3.7-.7 0-1.3-.4t-1-2l-1.5-6.6 12.8 3v-.6l-.5-2q0-.6-.2-.8 0-.5-.3-.7-.2-.3-.5-.3zM1.1 92.7l19.5 1.2q.2-1 .7-1.7l1-1.6.7-1.8q.4-1 .4-2.1 0-1-.4-2.1h.7q.6 0 1.1.2t1 .6l.4 1q.2.6.2 1.3 0 1-.8 2l-1.6 2q-.9 1-1.6 2.2-.7 1-.8 2.4v.6L2.4 95.8q.4 1.9 1.6 3t3 1.2h1.3l1-.2.6-.4.5-.4q0 1.6-1 2.5-.8 1-2.5.8-1.4 0-2.5-.8-1-.8-1.9-2-.8-1.1-1.3-2.6-.4-1.5-.3-3v-.6l.1-.6zM6 79q-.7-.2-1-.8-.5-.6-.3-1.4.2-.7 1-1 .5-.5 1.2-.3.8.2 1.1.9.4.7.2 1.4t-.8 1T6 79zm4.6-2l9 2.3.7.2h.8l.8-.1q.3-.2.4-.6v-1h.6l.7.5q.3.2.4.6t0 .8v.8q-.2.8-.7 1.2l-1 .6q-.7.2-1.4 0-.7 0-1.3-.2l-9.7-2.5zm.7-17.6l9 4.5-2-6.2 1.2-2.4 1.2 5.7.2-.2q.5-1 1.2-1.5t1.5-.6l1.4.2 1.3.5 1.2.7 1.4.7h.5l.4-.2.5-.5.2-.6V59h.4l.8.8q.3.4.3.8v.7l-.3.7q-.4.7-.9 1l-1 .7h-1l-1.3-.4-.4-.2-.7-.4-.7-.3-.4-.3q-1.3-.6-2-.4-.7.3-1 .9t0 1.3q0 .7 1 1.6l5.1 2.6-1.3 2.5L10.3 62zM33 37.3l7 6 .6.6.7.4.7.2q.4 0 .7-.5l.3-.3.2-.4h.2l.2.2q.6.6.5 1.3 0 .8-.5 1.4-.6.7-1.5.8t-2-.6q.6 1.3.5 2.3t-.7 1.7q-.5.6-1.2 1-.6.4-1.3.5l-1.5-.2-1.7-1.1-7.2-6.3 1.7-2 7 6q1 .9 1.8 1 .7 0 1.2-.6l.3-.7v-1q0-.4-.4-1l-.8-1-6.6-5.6z" aria-label="Bez Liku" font-family="'Lobster Two'" font-size="25.4" font-weight="400" letter-spacing="5.3" word-spacing="-5.3"/>
			<path d="M172.1 38.2l-1 1-.5.7-.2.6v.4q-1-1.1-1-2.3 0-1.2 1.2-2.2 1-1 2.5-1.1 1.3-.2 2.7 0 1.5.5 3 1.4 1.3.9 2.5 2.3 1 1.2 1.4 2.4.5 1.2.5 2.2t-.5 1.9q-.4.8-1.2 1.4-.8.7-1.9 1l-2.3-.2q1.1 1.8.8 3.6-.3 2-2.3 3.6l-1.7 1q-1 .7-2 .9-1.2.3-2.3 0-1-.2-2-1.3-.4-.4-.6-1l-.3-1 .1-1q.2-.4.7-.8l.3-.2.5-.3q-.2.7 0 1.3.1.6.4 1 .5.5 1 .6l1.2-.1q.7-.2 1.3-.6l1.2-.8q2-1.7 2.2-3.2.3-1.5-.9-2.8l-.5-.6-.7-.7-8.2 6.7-1.9-2.3 13.5-11 2.2 2-4.7 3.9.2.3q.5.6 1.2.8.7.3 1.5.3t1.5-.2l1.3-.7q1.2-1 1.3-2.5t-1.3-3.2q-.7-1-1.7-1.5-1-.7-2-1h-2.3q-1 .4-2.2 1.3zm15.2 30.4q-1.7.8-3.6 0-1.8-1-3.2-3.3l-1.5 1q-.5.6-.7 1.2v1q0 .6.3 1 .4.9 1 1.5t1.4.7l-.6.4-1 .2-1.3-.4-1-1-.8-1.2q-.3-.8-.4-1.8t.2-2q.4-1 1.3-2 1-1 2.5-1.5l2.3-1q1.3-.2 2.6-.1 1.3 0 2.4.6 1.2.6 1.8 2l.4 1.2v1.3q0 .6-.6 1.2t-1.5 1zm-5.9-3.8q1.1 1.6 2.5 2.2 1.5.6 3 0 .8-.5 1-1 .4-.5 0-1.1-.2-.7-1-1-.7-.2-1.6-.1-1 0-2 .3zm3.4 23.6q0-.3.2-.4l.4-.3q.4 0 .7.2.3.3.4.7.2.6 0 1.2-.4.5-1 .7h-1l-.9-.4q-.4-.3-.7-1-.4-.4-.5-1.1l-1.7-7 13.2 3-.5-2.3-.3-1q-.2-.4-.4-.4-.3 0-.4.3t-.4.4l-.6-.2q-.4-.3-.5-.8 0-.8.3-1.3.5-.5 1.3-.7.7-.2 1.2.3.6.5 1 2l1.5 6.7-12.7-3v.6l.3 1 .2 1 .1.8q.1.5.4.7.2.3.4.3zm18.6 24l-19.5-1q-.2.8-.7 1.6l-1 1.7-.7 1.8q-.4 1-.5 2 0 1 .5 2.2h-.8q-.6 0-1-.2-.5-.2-.9-.7l-.5-1q-.2-.5-.2-1.2 0-1 .8-2l1.6-2 1.6-2.2q.7-1.1.8-2.4v-.6l19.2 1q-.4-1.8-1.6-3-1.2-1-3-1.2H196l-.8.3-.7.3-.5.5q.1-1.6 1-2.5.7-1 2.5-.8 1.3 0 2.4.8 1.2.7 2 1.9t1.2 2.7q.5 1.5.4 3v.6l-.2.6zm-4.8 13.7q.7.2 1 .9.5.6.3 1.4-.2.7-.9 1-.7.4-1.4.2-.7-.1-1-.8-.4-.7-.2-1.4t.8-1 1.4-.3zm-4.7 2l-9-2.2-.7-.2-.8-.1q-.4 0-.7.2-.3 0-.4.6v1h-.6l-.7-.5-.4-.6v-1.6q.2-.8.7-1.2.4-.5 1-.6.7-.2 1.4-.1.7 0 1.3.2l9.6 2.6zm-.7 17.7l-8.8-4.5 2 6.2-1.3 2.4-1.3-5.8v.3q-.6 1-1.3 1.5t-1.5.5l-1.5-.1-1.3-.5-1-.7-1.5-.7h-1l-.4.7-.2.5v.6h-.3l-.2-.1-.7-.6q-.3-.4-.3-.8v-.7l.3-.7q.4-.7 1-1.1t1-.6h1q.6 0 1.2.4l.4.2.7.4.6.3.5.3q1.3.6 2 .4t1-1q.2-.5 0-1.2 0-.7-1-1.6l-5-2.6 1.1-2.5 16.7 8.5zm-21.6 22l-7-6-.6-.4q-.3-.3-.7-.4l-.8-.2q-.3 0-.6.4l-.3.4-.2.4-.2-.1-.2-.2q-.6-.5-.6-1.3 0-.7.6-1.3.6-.7 1.4-.8 1-.1 2.2.6-.7-1.3-.6-2.3 0-1 .7-1.8.5-.6 1.1-1l1.4-.4 1.5.2q.8.3 1.7 1l7.2 6.4-1.8 2-7-6q-1-1-1.7-1t-1.2.6l-.4.7v.9l.4 1q.3.5 1 1l6.5 5.7z" aria-label="Bez Liku" font-family="'Lobster Two'" font-size="25.4" font-weight="400" letter-spacing="5.3" word-spacing="-5.3"/>
			<path fill="none" stroke="#000" stroke-linecap="round" stroke-width="2.2" d="M50.5 30a89.2 89.2 0 01103.7-.7m4 143a89.2 89.2 0 01-111-.1"/>
		</g>
	</g>
		<g class="inner-circle"><circle cx=".1" cy="-145.1" r="74.7" fill="#aae7aa" stroke="#000" stroke-width=".3" transform="rotate(135)"/></g>
		<path class="leaves" fill="none" stroke="#000" stroke-linecap="round" stroke-width=".9" d="M93.5 53.3c11.4 2.4 21.5 7 30.7 13.5M84.4 57C104.2 12.7 143 78.6 141 82c5.5-16.6-62.6-8-56.6-25zm70.4 65.5a81.6 81.6 0 01-27 19.8m28.2-29.6c28.6 39.3-47.9 39.9-50 36.5 11.7 13 38.3-50.2 50-36.5zm-91.9 28a81.7 81.7 0 01-3.6-33.2M72 146.9c-48.4 5-10.6-61.4-6.6-61.6-17 3.6 24.3 58.3 6.6 61.6z"/>
</svg>
