<svg version="1.1" viewBox="0 0 304.37 304.37" xmlns="http://www.w3.org/2000/svg">
 <g class="logo__outer">
	<circle transform="rotate(135)" cx="1.4211e-14" cy="-215.22" r="150.1" fill="#fff9" stroke="#444"  stroke-width="2"/>
	<g transform="translate(-183.83 164.35)" stroke-width=".3" style='font-feature-settings:"salt";font-variant-caps:normal;font-variant-east-asian:normal;font-variant-ligatures:normal;font-variant-numeric:normal' aria-label="Bez Liku">
		<path d="m240 74.3q.9-.6 1.4-1.3l.9-1.2.4-1 .2-.6q1.5 1.9 1.3 3.7-.1 1.8-2 3.3-1.8 1.3-3.9 1.6t-4.3-.4q-2.3-.6-4.4-2-2.2-1.5-3.8-3.8-1.6-2-2.2-3.8t-.5-3.4q0-1.6.8-3 .7-1.2 1.9-2 1.2-1 3-1.3 1.9-.3 3.7.3-.8-1.5-1-3-.4-1.5 0-3 .3-1.4 1.2-2.7.8-1.4 2.3-2.5 1.2-1 3-1.8 1.6-.8 3.4-1.1 1.8-.4 3.5 0 1.7.5 3 2.1 1.2 1.6 1.6 3.5.4 1.8.1 3.4l1.3-1 2.8 3.6-21.6 16.5-3.2-3.2 7.6-5.9-.4-.4q-.7-1-1.8-1.4-1-.5-2.3-.6-1.2 0-2.3.3-1.2.4-2 1-2 1.6-2.3 3.9-.2 2.3 1.8 5 1.1 1.4 2.6 2.4 1.5 1.1 3.2 1.5 1.6.4 3.4 0 1.8-.3 3.6-1.6zm-3.8-12.9.7 1 1 1 9.8-7.7-.1-2.4q-.3-1.3-1.1-2.4-.7-.9-1.7-1.2t-2 0q-1 .1-2 .7t-2 1.2q-3.4 2.5-3.9 5t1.3 4.8zm-15-29.3q2.8-1 5.5.6t4.7 5.5q1.5-.8 2.3-1.5.9-.8 1.2-1.7.4-.8.3-1.6 0-.9-.4-1.7-.4-1.3-1.3-2.2-.9-1-2.2-1.4l1-.4q.9-.4 1.8-.2.8.2 1.7.8.8.6 1.4 1.5.7.9 1.1 2 .5 1.4.5 2.9t-.6 3q-.8 1.5-2.3 2.8-1.5 1.4-4 2.3-1.6.6-3.7 1-2 .3-4 0t-3.7-1.3-2.5-3.2l-.4-2q-.2-1 .1-2t1.1-1.7q.8-.9 2.4-1.5zm6.4-18-.2.6-.6.4q-.6.2-1.1-.1-.5-.4-.8-1-.3-1 0-1.8.4-1 1.5-1.4.6-.2 1.3-.1.7 0 1.4.5.7.4 1.3 1.1t1 1.8l4 10.4-21-2 1.3 3.4.7 1.5q.3.7.7.5.4-.1.5-.5.1-.5.5-.6.4-.2 1 .2.6.3.9 1.1.4 1.1-.2 2-.7 1-1.8 1.3-1 .4-2-.2-1-.7-1.9-3l-3.6-9.8 20.2 2.1-.8-2.4-.5-1.6-.4-1.2q-.2-.7-.6-1t-.8-.3zm2.2 24.7q-1.5-2.7-3.6-3.7-2.2-1.1-4.4-.3-1.5.6-2 1.3-.5.8-.1 1.7.4 1 1.5 1.6 1 .4 2.5.5 1.4 0 3-.3 1.7-.3 3.1-.8zm-31.7-56.1 30.3.2q.3-1.4 1-2.7l1.2-2.6q.7-1.4 1.1-2.8.5-1.6.5-3.3 0-1.5-.8-3.3l1.1-.1q1 0 1.7.3.8.3 1.4 1 .6.5.9 1.4.4.9.4 2 0 1.6-1.1 3.2-1 1.6-2.3 3.2l-2.3 3.5q-1 1.8-1 3.8v1l-29.8-.2q.8 2.9 2.7 4.5 2 1.7 4.9 1.7l2-.1 1.3-.5 1-.5.7-.8q0 2.5-1.2 4t-4 1.5q-2 0-3.8-1.1-1.8-1-3.1-2.8-1.4-1.8-2.2-4-.8-2.3-.8-4.7v-1l.1-.8z" style='font-feature-settings:"salt";font-variant-caps:normal;font-variant-east-asian:normal;font-variant-ligatures:normal;font-variant-numeric:normal'/>
		<path d="m210.7-37 14.1 2.8 1 .1h1.3q.7 0 1.2-.3t.6-1q.4-2-4-3.9l.3-1.5q2.6 1 4 2 1.3 1 2 1.9.6 1 .7 1.8v1.6q-.4 1.4-1 2.2-.8.8-1.8 1.2t-2.1.4-2.1-.2l-15-3zm-7 3.8q-1-.2-1.8-1.2-.7-1-.4-2.1.2-1.1 1.2-1.8t2.1-.4q1.2.2 1.8 1.2t.4 2q-.2 1.2-1.2 1.9-1 .6-2 .4zm4.2-25 14.3 5.7-3.8-9.3 1.6-3.8 2.7 8.7.1-.4q.7-1.8 1.7-2.6t2.2-1q1.1-.2 2.3 0l2 .7 2 .8.8.4.6.2.7.2q.4.2.7.1l.8-.2.5-.8q.4-1-.3-2.1-.8-1.2-2.8-2.5l.6-1.5q2.3 1.5 3.5 2.7 1.2 1.3 1.6 2.4.5 1 .3 1.8 0 .9-.3 1.5-.5 1.1-1.2 1.9-.7.7-1.5 1-.8.2-1.8.2-.9-.1-1.8-.5l-.6-.2-1.2-.5-1-.5-.8-.3q-2-.8-3-.3t-1.5 1.4q-.4 1 0 2.2.3 1 1.8 2.3l8.3 3.3-1.5 4-27-10.8zm27.2-31.8 11.8 8.3 1 .7 1 .5q.7.2 1.3.1.5-.1 1-.7l.3-.7.2-.6.4.2.3.1q1 .8 1 2 .1 1.2-.6 2.2-.8 1-2.1 1.4-1.4.3-3.4-.6 1.3 1.9 1.3 3.5t-.8 2.8q-.7 1-1.6 1.7-1 .7-2 .9-1.2.2-2.4-.1-1.3-.4-2.8-1.4l-12.2-8.6 2.5-3.5 11.7 8.3q1.7 1.2 2.9 1.2 1-.1 1.7-1 .4-.5.5-1.2l-.2-1.4q-.2-.7-.7-1.4-.5-.8-1.4-1.4l-11.1-7.9z" style='font-feature-settings:"salt";font-variant-caps:normal;font-variant-east-asian:normal;font-variant-ligatures:normal;font-variant-numeric:normal'/>
	</g>
	<g transform="translate(-183.83 164.35)" stroke-width=".3" style='font-feature-settings:"salt";font-variant-caps:normal;font-variant-east-asian:normal;font-variant-ligatures:normal;font-variant-numeric:normal' aria-label="Bez Liku">
		<path d="m432.5-98.2q-1 .7-1.5 1.3l-.9 1.3-.4.9-.2.6q-1.4-1.9-1.3-3.7t2.1-3.3q1.7-1.3 3.8-1.6 2.2-.2 4.3.4 2.3.6 4.4 2 2.2 1.6 3.9 3.8 1.5 2 2 3.8.7 1.8.6 3.4 0 1.6-.8 3-.7 1.2-1.8 2.1-1.3 1-3.1 1.3t-3.7-.4q.9 1.5 1.1 3 .3 1.5 0 3-.3 1.4-1.2 2.8-1 1.3-2.4 2.4-1.2 1-2.9 1.8t-3.5 1.2q-1.8.3-3.5-.1t-3-2q-1.2-1.7-1.6-3.5-.4-1.9 0-3.5l-1.4 1-2.8-3.6 21.6-16.5 3.3 3.3-7.6 5.8.3.5q.7.9 1.8 1.4 1.1.4 2.3.5 1.2 0 2.3-.3 1.2-.4 2-1 2-1.6 2.3-3.8.2-2.4-1.8-5-1.1-1.5-2.6-2.5t-3.2-1.5q-1.6-.4-3.4 0-1.8.3-3.5 1.7zm3.8 12.9-.8-1q-.4-.6-.9-.9l-10 7.6q0 1 .3 2.4.2 1.3 1 2.4.7 1 1.7 1.2t2 0q1-.1 2.1-.7t2-1.2q3.3-2.5 3.8-5t-1.2-4.8zm14.9 29.3q-2.8 1-5.5-.6t-4.6-5.4q-1.6.7-2.4 1.5t-1.2 1.6-.3 1.6q0 .9.4 1.7.5 1.3 1.3 2.3.9 1 2.2 1.3l-.5.2-.4.2q-1 .4-1.8.2-1-.2-1.8-.8-.8-.5-1.4-1.5-.7-.9-1-2-.6-1.3-.6-2.9 0-1.5.7-3t2.2-2.8 4-2.3q1.6-.6 3.7-1 2.1-.3 4.1 0t3.7 1.3q1.6 1 2.4 3.2.4 1 .5 2t-.2 2-1.1 1.8-2.4 1.4zm-6.4 18 .2-.7.6-.4q.6-.2 1.1.1.6.4.8 1 .3 1 0 1.9t-1.5 1.3q-.6.2-1.3.2-.7-.1-1.4-.6-.7-.4-1.3-1.1t-1-1.7l-4-10.3 20.9 2-1.3-3.4q-.3-1-.7-1.6-.3-.6-.7-.5t-.5.5q0 .5-.5.6-.4.2-1-.2-.6-.3-.9-1-.4-1.2.2-2.1.7-.9 1.8-1.3 1-.4 2 .2 1 .7 1.9 3l3.6 9.9-20.2-2.2.3 1 1.4 4.2q.3.7.6 1 .4.4.8.3zm-2.2-24.8q1.5 2.7 3.6 3.8 2.2 1 4.5.2 1.5-.6 2-1.3.4-.8 0-1.7-.3-1-1.4-1.6-1.1-.4-2.6-.5-1.4 0-3 .3t-3.1.8zm31.7 56.2-30.3-.1q-.3 1.3-1 2.6l-1.2 2.6-1.1 2.9q-.5 1.5-.5 3.3 0 1.5.8 3.2l-1.1.2q-.9 0-1.7-.4-.8-.3-1.3-1-.6-.5-1-1.4-.3-.9-.3-2 0-1.6 1-3.2t2.4-3.1q1.3-1.7 2.3-3.5t1-3.8v-1l29.8.2q-.8-2.9-2.7-4.5-2-1.7-4.9-1.7-1.1 0-2 .2-.7.1-1.3.4l-1 .6-.7.7q0-2.5 1.2-4t4-1.5q2 0 3.8 1.1 1.8 1 3.2 2.8 1.3 1.8 2.1 4 .8 2.4.8 4.8v1.6z" style='font-feature-settings:"salt";font-variant-caps:normal;font-variant-east-asian:normal;font-variant-ligatures:normal;font-variant-numeric:normal'/>
		<path d="m461.8 13-14.2-2.6-1-.2h-1.3q-.6 0-1.2.4-.4.3-.6 1-.4 2 4 3.8l-.3 1.5q-2.5-1-4-2-1.3-1-2-1.9-.6-1-.6-1.8v-1.5q.3-1.5 1-2.3.8-.8 1.7-1.2t2.1-.3l2.2.1 15 3zm6.9-3.7q1.1.3 1.8 1.2.7 1 .4 2.1-.2 1.1-1.2 1.8t-2 .5q-1.2-.3-1.9-1.2t-.4-2.1q.2-1.2 1.2-1.8 1-.7 2-.5zm-4.2 25-14.2-5.7 3.7 9.3-1.5 3.8-2.7-8.6-.2.3q-.7 1.8-1.7 2.6t-2.2 1q-1.1.2-2.3 0l-2-.6-1-.4-1.8-.9-.6-.2-.7-.2-.7-.1q-.4 0-.8.3-.3.2-.5.7-.4 1 .4 2.1.7 1.2 2.7 2.6l-.5 1.4q-2.4-1.5-3.6-2.7-1.2-1.3-1.6-2.3t-.3-2l.3-1.3q.5-1.2 1.2-2 .7-.6 1.5-1 .8-.2 1.8-.2.9.1 1.8.5l.7.3 1.1.4 1 .5.8.3q2 .8 3 .3 1.1-.4 1.5-1.4t0-2.1q-.3-1-1.8-2.4l-8.3-3.3 1.6-3.9 27 10.7zm-27.2 31.8-11.7-8.3-1-.6-1.2-.6q-.6-.2-1.1 0-.6 0-1 .7l-.4.6-.2.6-.4-.1-.3-.2q-1-.8-1-2t.6-2.2q.8-1 2.1-1.4 1.4-.3 3.4.6-1.3-1.8-1.3-3.5 0-1.6.8-2.8.8-1 1.7-1.7t2-.9q1-.2 2.4.2 1.3.3 2.7 1.4l12.2 8.6-2.5 3.4-11.7-8.3q-1.7-1.2-2.9-1.1-1 0-1.7 1-.3.4-.4 1-.1.8.1 1.5t.7 1.5q.6.7 1.5 1.3l11 7.9z" style='font-feature-settings:"salt";font-variant-caps:normal;font-variant-east-asian:normal;font-variant-ligatures:normal;font-variant-numeric:normal'/>
	</g>
 	<path d="m70.992 53.053a121 126.52 89.997 01162.29.0323m-162.32 198.17a121 126.52 89.997 00162.29-.10913" fill="none" stroke="#000" stroke-linecap="round" stroke-width="4.2"/>
 </g>
 <g class="logo__inner">
	<circle transform="rotate(135)" cx="1.4211e-14" cy="-215.22" r="94.7" fill="#aae7aaaa" stroke="#444"  stroke-width="2"/>
	<g class="logo__leaves">
		<path d="m124.97 131.05a62 62 0 00-11.3 6.8l-1.3 1-1 .6a143.4 143.4 0 00-11.5 10c-2.7 2.9-4.7 5.2-6.7 7.4a37.8 37.8 0 00-7.5 20.4c0 2.7.4 5.5 1.4 8.2a27.5 27.5 0 009.8 12.5c1.5 1 3.1 1.9 4.9 2.4a13.4 13.4 0 0011.1-1.3c1.8-1 3.5-2.6 5.2-4.7 1.6-2 3-4.6 4.5-7.8 1.3-3 2-6 2.3-9.1.4-3.1.3-6.3 0-9.3-.1-3.1-.5-6.3-.9-9.2a113.3 113.3 0 01-1-10.8l-.2-2.5a53.9 53.9 0 01-.3-8.2 15.5 15.5 0 011.2-4.5c.4-1 1-1.6 1.3-1.9-.4.1-1.4.2-2.4 1a5.7 5.7 0 00-1.7 2.2c-.4.7-.7 1.6-1 2.7l-.4 3c-.2 2-.1 4 0 6v2.5l.1 1.9c0 3 .3 6 .6 9l.8 9c.2 3 .2 5.8-.1 8.6a32.2 32.2 0 01-6.1 14.8c-1.4 1.7-2.8 3-4 3.7a9.2 9.2 0 01-7.8.9c-1.3-.4-2.5-1-3.8-1.9a23.6 23.6 0 01-8.2-10.5c-.8-2-1.1-4.4-1.2-6.7a37 37 0 015.9-18.5 86.2 86.2 0 0118.7-20 86.1 86.1 0 017-5.5 25 25 0 013.6-2.2zm22.3 54.7a62 62 0 0011.5 6.4l1.5.7 1 .5a143.3 143.3 0 0014.5 5c3.9 1 6.9 1.5 9.7 2a37.8 37.8 0 0021.4-3.8c2.4-1.2 4.6-3 6.5-5.1a27.5 27.5 0 006-14.7c0-1.8 0-3.7-.4-5.5a13.4 13.4 0 00-6.7-9c-1.9-1-4-1.7-6.7-2-2.6-.4-5.5-.5-9-.1-3.2.3-6.2 1.3-9 2.5a52.8 52.8 0 00-8.2 4.6l-7.4 5.4a113.3 113.3 0 01-8.9 6.3l-2 1.5a53.9 53.9 0 01-7 4.3 15.6 15.6 0 01-4.5 1.2c-1 .1-1.8 0-2.3-.2.3.4 1 1.1 2 1.6a5.7 5.7 0 002.8.4c.8 0 1.8-.2 2.9-.5l2.8-1.2c1.8-.8 3.5-1.8 5.2-2.9.7-.4 1.4-1 2.1-1.3l1.6-1c2.5-1.5 5-3.2 7.6-5l7.4-5.3c2.4-1.6 4.9-3 7.5-4.1 2.5-1.1 5.1-1.9 7.9-2.2 3.1-.3 5.8-.2 8 0 2.1.4 3.8 1 5.1 1.7a9.2 9.2 0 014.7 6.2c.3 1.4.3 2.8.2 4.3a23.6 23.6 0 01-5 12.4 19.3 19.3 0 01-5.1 4.3 37 37 0 01-19 4.2 86.2 86.2 0 01-26.7-6.3 85.9 85.9 0 01-8.3-3.2 25 25 0 01-3.7-2zm36.3-46.6c.1-1 .3-2.2.3-4.2a62 62 0 00-.5-9l-.2-1.6v-1.1a143.4 143.4 0 00-3-15c-1-4-2.1-6.8-3-9.6a37.8 37.8 0 00-14-16.7 22.5 22.5 0 00-7.8-2.9 27.5 27.5 0 00-15.7 2.2c-1.6.8-3.2 1.8-4.5 3a13.4 13.4 0 00-4.4 10.3c0 2.2.5 4.4 1.4 6.9 1 2.4 2.5 5 4.5 7.8 2 2.6 4.2 4.8 6.8 6.6 2.5 1.8 5.2 3.4 8 4.7l8.4 3.7a113.3 113.3 0 019.8 4.6l2.3 1a53.9 53.9 0 017.3 4 15.6 15.6 0 013.3 3.2c.6.8.9 1.6 1 2 0-.4.5-1.3.3-2.5a5.7 5.7 0 00-1-2.6 21.7 21.7 0 00-4.3-4.1l-5.1-3-2.3-1.2-1.6-.9c-2.6-1.4-5.3-2.7-8.2-4-2.7-1.2-5.5-2.4-8.2-3.8a50 50 0 01-7.3-4.4 32.2 32.2 0 01-9.8-12.7c-.8-2-1.1-3.8-1.2-5.3a9.2 9.2 0 013.1-7.1c1-1 2.2-1.7 3.5-2.4a23.6 23.6 0 0113.2-1.9c2.3.4 4.4 1.2 6.4 2.4 2 1.1 4 2.6 5.7 4.2a37 37 0 017.4 10.1 86.2 86.2 0 018 26.2 86 86 0 011.3 8.9c.2 2 .1 3.3 0 4.2z"/>
		<path d="m104.57 190.35c.4-.3.5-.9.3-1.4a20.7 20.7 0 01-2.7-14.8c.6-3.1 2-6 3.7-9 1.6-2.9 3.5-5.8 4.9-8.7 2.3-4.8 3.3-9.1 3.8-12-.5 2.9-1.7 7.1-4.3 11.7-1.5 2.9-3.5 5.7-5.3 8.6s-3.3 5.8-4.2 9a21.4 21.4 0 002.4 16.3c.3.5.9.6 1.3.3zm105.6-14.6c-.4-.2-1 0-1.3.5a20.7 20.7 0 01-11.5 9.7c-3 1-6.2 1.2-9.7 1.2l-10 .1c-5.4.4-9.6 1.8-12.2 2.7 2.6-1 7-2 12.2-2.1 3.2-.1 6.6.2 10 .3 3.5 0 6.8 0 10-1a21.4 21.4 0 0013-10c.2-.6 0-1.2-.5-1.4zm-65.4-84c0 .5.5.8 1 .8a20.7 20.7 0 0114.2 5.2c2.4 2.1 4.2 4.8 6 7.7 1.7 2.9 3.2 6 5 8.6 3 4.5 6.3 7.5 8.5 9.3-2.2-1.8-5.3-5-8-9.6-1.7-2.7-3.1-5.8-4.7-8.8-1.7-3-3.4-5.8-5.8-8.2a21.4 21.4 0 00-15.3-6 1 1 0 00-.9 1z"/>
	</g>
 </g>
</svg>
